# xmcd CD database file
#
# Track frame offsets:
#	225
#	49932
#	69885
#	114259
#	136924
#	161588
#	178048
#	203424
#	225924
#
# Disc length: 3634 seconds
#
# Revision: 0
# Processed by: cddbd v1.5PL3 Copyright (c) Steve Scherf et al.
# Submitted via: CDex 1.51
#
DISCID=690e2f09
DTITLE=Various Artist - Nuova Era and Meditazione 034
DYEAR=1900
DGENRE=New Age
TTITLE0=The Astrologer's Seat
TTITLE1=Maiden of the Lake
TTITLE2=Gwenved, a world beyond the other world
TTITLE3=Someday
TTITLE4=Under august sun
TTITLE5=Dream of the Basketmaker
TTITLE6=Moonlit Forest
TTITLE7=Isirik
TTITLE8=Incomprehensible love
EXTD=
EXTT0=
EXTT1=
EXTT2=
EXTT3=
EXTT4=
EXTT5=
EXTT6=
EXTT7=
EXTT8=
PLAYORDER=
